<?xml version="1.0" encoding="utf-8"?>
<!-- Generator: Adobe Illustrator 19.1.0, SVG Export Plug-In . SVG Version: 6.00 Build 0)  -->
<svg version="1.1" id="Layer_1" xmlns="http://www.w3.org/2000/svg" xmlns:xlink="http://www.w3.org/1999/xlink" x="0px" y="0px"
	 viewBox="0 0 300 300" style="enable-background:new 0 0 300 300;" xml:space="preserve">
<style type="text/css">
	.st0{fill:none;stroke:#000000;stroke-width:10;stroke-linecap:round;stroke-linejoin:round;stroke-miterlimit:10;}
	.st1{fill:#A8A4A0;}
</style>
<rect x="54.5" y="91" class="st0" width="146.2" height="192"/>
<polyline class="st0" points="31,257.2 31,65.2 177.3,65.2 "/>
<polyline class="st0" points="4.8,229.2 4.8,37.2 151,37.2 "/>
<line class="st0" x1="77.9" y1="219.7" x2="177.3" y2="219.7"/>
<line class="st0" x1="77.9" y1="251.5" x2="177.3" y2="251.5"/>
<line class="st0" x1="77.9" y1="124.6" x2="177.3" y2="124.6"/>
<line class="st0" x1="77.9" y1="156.3" x2="177.3" y2="156.3"/>
<line class="st0" x1="77.9" y1="188" x2="177.3" y2="188"/>
<path class="st1" d="M278.9,20.7c-50.7,6.2-114.1,35.7-140,76.1c-12.6,19.7-14.7,39.6-6.3,59.5C164.2,95.7,215.3,48.2,278.9,20.7z"
	/>
<path class="st1" d="M140.5,151.7c0,0,36.6-90.3,132.9-125c0,0,34.3-0.7,20.7,10.5S194.5,166.7,140.5,151.7z"/>
<path d="M123.2,193.9c-0.4,0-0.9-0.1-1.3-0.2c-2.3-0.7-3.5-3.2-2.8-5.5c3.5-10.8,7.7-21.4,12.4-31.5c-11.9-22.1-10.8-45.3,3.1-67.2
	c28.9-45.6,108-76.2,156.6-72.2c2.1,0.2,3.7,1.8,4,3.8c0.2,2-1,4-3,4.6c-65.3,21.3-117.6,66-148.3,125.5
	c55.3-8.5,80.3-40.9,104.5-72.2c13.8-17.8,26.7-34.6,44.8-47.3c2-1.4,4.7-0.9,6,1c1.4,2,0.9,4.7-1,6c-16.9,12-29.6,28.3-42.9,45.5
	c-26.2,33.8-53.2,68.8-116,76.3c-4.5,9.7-8.5,19.8-11.9,30.2C126.7,192.8,125,193.9,123.2,193.9z M265.1,26.7
	c-44.7,5.5-100.5,31.6-123.3,67.4c-11.1,17.4-12.9,35.1-5.6,52.7C164.1,93.1,209.1,51.1,265.1,26.7z"/>
<path d="M219.9,93c-0.1,0-0.2,0-0.4,0c-5.6-0.5-8.5-0.6-14.2-0.7c-2.4,0-4.3-2-4.3-4.4c0-2.4,1.7-4.3,4.4-4.3c6,0.1,9,0.2,14.8,0.7
	c2.4,0.2,4.2,2.3,4,4.7C224,91.3,222.1,93,219.9,93z"/>
<path d="M181.3,115.5c-2.2,0-4-1.6-4.3-3.8c-0.3-2.4,1.4-4.5,3.7-4.9c11.8-1.5,17.8-1.9,29.3-1.8c2.4,0,4.3,2,4.3,4.4
	c0,2.4-2,4-4.4,4.3c-11.2-0.1-16.6,0.2-28.1,1.7C181.6,115.5,181.4,115.5,181.3,115.5z"/>
</svg>
