<?xml version="1.0" encoding="utf-8"?>
<!-- Generator: Adobe Illustrator 19.1.0, SVG Export Plug-In . SVG Version: 6.00 Build 0)  -->
<svg version="1.1" id="Layer_1" xmlns="http://www.w3.org/2000/svg" xmlns:xlink="http://www.w3.org/1999/xlink" x="0px" y="0px"
	 viewBox="0 0 300 300" style="enable-background:new 0 0 300 300;" xml:space="preserve">
<style type="text/css">
	.st0{fill-rule:evenodd;clip-rule:evenodd;fill:#181616;}
</style>
<path class="st0" d="M149.2,3.7C66.8,3.7,0,70.5,0,153c0,65.9,42.8,121.9,102.1,141.6c7.5,1.4,10.2-3.2,10.2-7.2
	c0-3.5-0.1-12.9-0.2-25.4c-41.5,9-50.3-20-50.3-20c-6.8-17.2-16.6-21.8-16.6-21.8c-13.6-9.3,1-9.1,1-9.1c15,1.1,22.9,15.4,22.9,15.4
	c13.3,22.8,34.9,16.2,43.4,12.4c1.4-9.6,5.2-16.2,9.5-20c-33.1-3.8-68-16.6-68-73.8c0-16.3,5.8-29.6,15.4-40
	c-1.5-3.8-6.7-19,1.5-39.5c0,0,12.5-4,41,15.3c11.9-3.3,24.7-5,37.4-5c12.7,0.1,25.4,1.7,37.4,5c28.5-19.3,41-15.3,41-15.3
	c8.1,20.5,3,35.7,1.5,39.5c9.6,10.4,15.3,23.8,15.3,40c0,57.3-34.9,70-68.1,73.6c5.4,4.6,10.1,13.7,10.1,27.6
	c0,20-0.2,36.1-0.2,40.9c0,4,2.7,8.6,10.3,7.2c59.3-19.8,102-75.7,102-141.6C298.5,70.5,231.7,3.7,149.2,3.7z"/>
</svg>
