<?xml version="1.0" encoding="utf-8"?>
<!-- Generator: Adobe Illustrator 19.1.0, SVG Export Plug-In . SVG Version: 6.00 Build 0)  -->
<svg version="1.1" id="Layer_1" xmlns="http://www.w3.org/2000/svg" xmlns:xlink="http://www.w3.org/1999/xlink" x="0px" y="0px"
	 viewBox="0 0 300 300" style="enable-background:new 0 0 300 300;" xml:space="preserve">
<path d="M224.8,187.4c-20.9,0-37.4-16.4-37.4-37.4c0-21.2,16.4-37.4,37.4-37.4c21.2,0,37.4,16.1,37.4,37.4
	C262.1,170.9,246,187.4,224.8,187.4z M75.2,187.4c-20.9,0-37.4-16.4-37.4-37.4c0-21.2,16.4-37.4,37.4-37.4
	c21.2,0,37.4,16.1,37.4,37.4C112.6,170.9,96.5,187.4,75.2,187.4z M290.3,140.7h-10.2c-4.2-26.9-26.9-46.7-55.3-46.7
	c-23,0-42.2,12.9-50.8,32.3c-15-7.2-32.9-7.2-47.9,0c-8.7-19.1-27.8-32.3-50.8-32.3c-28.4,0-51.1,19.7-55.3,46.7H9.7
	c-9.3,0-9.3,0-9.3,9.3s0,9.3,9.3,9.3h10.2c4.2,26.9,26.9,46.7,55.3,46.7c31.7,0,56.2-24.5,56.2-56.2c0-1.8,0-3.6-0.3-5.7
	c12.6-6.3,25.1-6.3,37.7,0c-0.3,2.1-0.3,3.9-0.3,5.7c0,31.7,24.5,56.2,56.2,56.2c28.4,0,51.1-19.7,55.3-46.7h10.2
	c9.3,0,9.3,0,9.3-9.3S299.5,140.7,290.3,140.7z"/>
</svg>
